<svg xmlns="http://www.w3.org/2000/svg" viewBox="0 0 1440 560" preserveAspectRatio="none"><defs><linearGradient id="g" x1="0" x2="1"><stop offset="0" stop-color="#0b0b12"/><stop offset="1" stop-color="#111827"/></linearGradient></defs><rect width="1440" height="560" fill="url(#g)"/><g opacity="0.25" stroke="#a78bfa" stroke-width="2" fill="none"><path d="M0 300 C 120 260, 240 340, 360 300 S 600 260, 720 300 960 340, 1080 300 1320 260, 1440 300"/><path d="M0 360 C 120 320, 240 400, 360 360 S 600 320, 720 360 960 400, 1080 360 1320 320, 1440 360"/></g><g opacity="0.18" stroke="#f472b6" stroke-width="2" fill="none"><path d="M0 220 C 120 180, 240 260, 360 220 S 600 180, 720 220 960 260, 1080 220 1320 180, 1440 220"/></g></svg>
